<svg width="23" height="22" viewBox="0 0 23 22" fill="none" xmlns="http://www.w3.org/2000/svg">
<path d="M22.647 17.7486C22.5963 18.5981 22.2376 19.4 21.6381 20.004C21.0386 20.6079 20.2394 20.9725 19.3903 21.0294C18.5412 21.0863 17.7005 20.8316 17.0257 20.313C16.351 19.7945 15.8885 19.0476 15.725 18.2125L5.14375 17.5829C3.75524 17.5003 2.45641 16.8695 1.533 15.8293C0.609592 14.789 0.137235 13.4246 0.219846 12.0361C0.302456 10.6476 0.933267 9.34873 1.97351 8.42532C3.01375 7.50191 4.37821 7.02955 5.76672 7.11216L16.2375 7.73513C16.9317 7.77643 17.614 7.54025 18.1341 7.07855C18.6542 6.61684 18.9696 5.96743 19.0109 5.27317C19.0522 4.57892 18.8161 3.89669 18.3543 3.37657C17.8926 2.85645 17.2432 2.54104 16.549 2.49974L6.0782 1.87677C5.84678 1.863 5.63031 1.75787 5.47641 1.5845C5.32251 1.41112 5.24378 1.18371 5.25755 0.952294C5.27132 0.720875 5.37645 0.504405 5.54983 0.350503C5.7232 0.196601 5.95061 0.117875 6.18203 0.131643L16.6528 0.754609C17.8099 0.823452 18.8922 1.34913 19.6618 2.21599C20.4313 3.08286 20.8249 4.21991 20.7561 5.377C20.6872 6.53409 20.1615 7.61645 19.2947 8.38596C18.4278 9.15547 17.2908 9.5491 16.1337 9.48025L5.66289 8.85729C4.73721 8.80221 3.82758 9.11712 3.13408 9.73273C2.44059 10.3483 2.02005 11.2142 1.96498 12.1399C1.9099 13.0656 2.22481 13.9752 2.84041 14.6687C3.45602 15.3622 4.3219 15.7827 5.24758 15.8378L15.8288 16.4673C16.0902 15.6575 16.638 14.9707 17.3695 14.5358C18.1009 14.1009 18.9659 13.9477 19.8023 14.1049C20.6386 14.2621 21.389 14.7188 21.9126 15.3896C22.4363 16.0604 22.6974 16.8991 22.647 17.7486Z" fill="#0994CF"/>
</svg>
