<svg width="9" height="11" viewBox="0 0 9 11" fill="none" xmlns="http://www.w3.org/2000/svg">
<path d="M6.163 0.0833282C7.63091 0.0833282 8.81716 0.662912 8.83341 2.13625V10.3587C8.83341 10.4508 8.81175 10.5429 8.76841 10.6242C8.698 10.7542 8.57883 10.8517 8.43258 10.895C8.29175 10.9383 8.13466 10.9167 8.00466 10.8408L4.49466 9.08583L0.979248 10.8408C0.89854 10.8836 0.805915 10.9112 0.713831 10.9112C0.410498 10.9112 0.166748 10.6621 0.166748 10.3587V2.13625C0.166748 0.662912 1.35841 0.0833282 2.82091 0.0833282H6.163ZM6.53133 3.355H2.45258C2.21966 3.355 2.03008 3.54458 2.03008 3.78291C2.03008 4.0207 2.21966 4.21083 2.45258 4.21083H6.53133C6.76425 4.21083 6.95383 4.0207 6.95383 3.78291C6.95383 3.54458 6.76425 3.355 6.53133 3.355Z" fill="#F36D72"/>
</svg>
